<?xml version="1.0" encoding="iso-8859-1"?>
<!-- Generator: Adobe Illustrator 19.0.0, SVG Export Plug-In . SVG Version: 6.00 Build 0)  -->
<svg version="1.1" id="Capa_1" xmlns="http://www.w3.org/2000/svg" xmlns:xlink="http://www.w3.org/1999/xlink" x="0px" y="0px"
	 viewBox="0 0 368 368" style="enable-background:new 0 0 368 368;" xml:space="preserve">
<polygon style="fill:#CCE4FF;" points="360.001,8 152.001,184 360.001,360 216.001,360 8.001,184 216.001,8 "/>
<path style="fill:#007AFF;" d="M367.513,5.248C366.361,2.096,363.361,0,360.001,0h-144c-1.888,0-3.728,0.672-5.168,1.896l-208,176
	c-1.792,1.52-2.832,3.752-2.832,6.104c0,2.352,1.04,4.584,2.832,6.104l208,176c1.44,1.224,3.28,1.896,5.168,1.896h144
	c3.36,0,6.36-2.096,7.512-5.248c1.152-3.152,0.208-6.688-2.352-8.856L164.385,184L365.169,14.104
	C367.729,11.936,368.665,8.4,367.513,5.248z M146.833,177.896c-1.792,1.52-2.832,3.752-2.832,6.104c0,2.352,1.04,4.584,2.832,6.104
	L338.169,352h-119.24L20.385,184L218.929,16h119.232L146.833,177.896z"/>
<g>
</g>
<g>
</g>
<g>
</g>
<g>
</g>
<g>
</g>
<g>
</g>
<g>
</g>
<g>
</g>
<g>
</g>
<g>
</g>
<g>
</g>
<g>
</g>
<g>
</g>
<g>
</g>
<g>
</g>
</svg>
